<?xml version="1.0" encoding="UTF-8" standalone="no"?>
<!-- Created with Inkscape (http://www.inkscape.org/) -->

<svg
   width="65.519791mm"
   height="66.045128mm"
   viewBox="0 0 65.519791 66.045128"
   version="1.1"
   id="svg5"
   inkscape:version="1.1.2 (1:1.1+202202050950+0a00cf5339)"
   sodipodi:docname="logo.svg"
   xmlns:inkscape="http://www.inkscape.org/namespaces/inkscape"
   xmlns:sodipodi="http://sodipodi.sourceforge.net/DTD/sodipodi-0.dtd"
   xmlns="http://www.w3.org/2000/svg"
   xmlns:svg="http://www.w3.org/2000/svg">
  <sodipodi:namedview
     id="namedview7"
     pagecolor="#ffffff"
     bordercolor="#666666"
     borderopacity="1.0"
     inkscape:pageshadow="2"
     inkscape:pageopacity="0.0"
     inkscape:pagecheckerboard="0"
     inkscape:document-units="mm"
     showgrid="false"
     inkscape:zoom="0.7518799"
     inkscape:cx="179.54995"
     inkscape:cy="-5.9849984"
     inkscape:window-width="1920"
     inkscape:window-height="1016"
     inkscape:window-x="0"
     inkscape:window-y="27"
     inkscape:window-maximized="1"
     inkscape:current-layer="g111"
     fit-margin-top="0"
     fit-margin-left="0"
     fit-margin-right="0"
     fit-margin-bottom="0" />
  <defs
     id="defs2" />
  <g
     inkscape:label="Capa 1"
     inkscape:groupmode="layer"
     id="layer1"
     transform="translate(-66.949466,-35.613299)">
    <g
       id="g111"
       transform="translate(-31.977239,2.1384524)">
      <path
         style="fill:#d0b2ca;stroke-width:0.264583"
         d="M 127.24338,99.273939 C 116.48031,97.720338 107.13835,90.904394 102.26045,81.04626 99.42686,75.319637 98.418146,69.223407 99.163647,62.330519 100.54133,49.592523 109.46117,38.825886 121.95171,34.824337 c 5.43137,-1.740028 13.57986,-1.804339 19.31458,-0.152439 10.88069,3.134206 20.26509,12.84597 22.63566,23.425288 0.66802,2.98125 0.73978,13.342114 0.11321,16.345502 -1.65236,7.920276 -7.38618,15.657798 -15.21666,20.534183 -2.48034,1.544611 -6.80933,3.251729 -9.91346,3.909324 -3.0827,0.653055 -8.54357,0.834938 -11.64166,0.387744 z m 8.07673,-2.028751 c 12.27107,-1.504666 22.51858,-9.842547 26.16438,-21.288628 1.13076,-3.550089 1.46981,-5.927981 1.45242,-10.186458 -0.0119,-2.913756 -0.14962,-4.41828 -0.57263,-6.25558 -2.90366,-12.611719 -13.67648,-22.465665 -26.17162,-23.939299 -14.49032,-1.708937 -27.72858,6.008527 -32.98524,19.229288 -1.68927,4.248579 -2.13215,6.582887 -2.1307,11.230174 0.001,4.337775 0.26098,6.195544 1.34796,9.645602 3.71788,11.800412 14.2726,20.37171 26.53849,21.55141 3.28282,0.315733 3.88169,0.317003 6.35694,0.01349 z m -9.53194,-1.301657 c -7.41772,-1.586494 -14.72761,-6.442032 -18.73218,-12.442705 -4.33186,-6.491113 -6.14654,-14.327394 -4.94042,-21.334087 1.25481,-7.289576 3.8642,-12.385956 8.83331,-17.252291 3.83047,-3.751237 8.4269,-6.350141 13.72387,-7.759714 2.96506,-0.789029 9.47743,-0.982337 12.51145,-0.371379 11.01734,2.218558 19.43243,9.397019 23.11974,19.722212 1.02199,2.86178 1.46238,5.241016 1.648,8.90353 0.19102,3.768971 -0.12741,6.203603 -1.29303,9.886005 -3.36621,10.634448 -11.70449,18.222388 -22.69991,20.657205 -3.04007,0.673193 -9.00236,0.668893 -12.17083,-0.0088 z"
         id="path125"
         sodipodi:nodetypes="ssssssssssssssssccsscssssssssscc" />
      <path
         style="fill:#a36696;stroke-width:0.264583"
         d="m 128.16942,99.068742 c -4.15575,-0.430787 -9.5407,-2.233618 -12.94983,-4.335489 -13.41792,-8.272703 -19.3225,-24.084552 -14.433,-38.650107 3.31282,-9.868727 11.37028,-17.792839 21.29741,-20.944944 8.44043,-2.680042 16.82274,-1.919064 24.98053,2.267825 7.74356,3.974288 13.89113,11.499132 16.47175,20.161992 0.73135,2.455069 0.74876,2.661264 0.74876,8.863541 0,6.197349 -0.018,6.410423 -0.747,8.863542 -1.58014,5.316876 -4.25406,9.869397 -8.18125,13.929079 -5.25807,5.43547 -11.62239,8.734023 -18.8286,9.75864 -2.93798,0.41774 -4.95751,0.438499 -8.35877,0.08592 z m 10.31875,-2.05622 c 10.26085,-2.310014 18.47463,-9.085183 22.47964,-18.54242 2.78084,-6.566546 3.1426,-15.270877 0.91124,-21.9249 -2.65141,-7.906595 -8.39621,-14.511944 -15.91223,-18.295823 -4.59071,-2.311154 -8.84618,-3.244463 -14.6224,-3.206983 -12.38715,0.08038 -23.82073,7.938682 -28.41789,19.531634 -1.55833,3.929739 -2.03001,6.144621 -2.18711,10.27003 -0.29674,7.792405 1.88661,14.727574 6.52677,20.731522 5.39206,6.976845 12.97089,11.059914 22.35844,12.045532 2.01684,0.211751 6.62514,-0.104667 8.86354,-0.608592 z m -12.63833,-1.367803 c -7.03448,-1.477243 -13.73514,-5.784332 -18.04652,-11.600045 -1.28411,-1.732161 -3.44092,-5.902738 -4.18277,-8.088114 -1.31448,-3.872304 -1.88016,-8.986504 -1.38735,-12.542964 1.58586,-11.444759 8.21868,-20.30602 18.32243,-24.478237 4.14774,-1.71276 6.35402,-2.122364 11.45025,-2.125785 4.11024,-0.0028 4.72574,0.06025 7.14125,0.731084 3.62385,1.006414 6.74316,2.433689 9.60971,4.397025 2.595,1.77735 6.22056,5.377846 7.76834,7.714632 2.23332,3.371789 4.13697,8.110988 4.72063,11.752162 0.40804,2.54553 0.42252,8.393999 0.0256,10.31875 -1.20758,5.855123 -3.90263,11.064531 -7.87538,15.222759 -4.59332,4.807773 -9.4775,7.501326 -16.02114,8.835419 -2.8906,0.589325 -8.3777,0.524248 -11.525,-0.136686 z"
         id="path123"
         sodipodi:nodetypes="ssssssscsssssssssssssssssscsssscssss" />
      <path
         style="fill:#e8505f;stroke-width:0.264583"
         d="m 128.9655,98.834665 c -13.87738,-1.430327 -24.93153,-10.808231 -28.43807,-24.125731 -0.911786,-3.462888 -1.477283,-8.142108 -1.188366,-9.833195 0.12729,-0.745056 0.35197,-2.3408 0.49929,-3.546099 0.270516,-2.213263 2.171746,-8.362525 3.233256,-10.457541 1.9941,-3.935565 6.45394,-8.915147 10.28324,-11.481615 10.42497,-6.987008 22.5697,-7.701974 33.70968,-1.984507 7.74356,3.974288 13.89113,11.499132 16.47175,20.161992 0.73135,2.455069 0.74876,2.661264 0.74876,8.863541 0,6.197349 -0.018,6.410423 -0.747,8.863542 -1.56501,5.265959 -4.24055,9.844891 -8.07936,13.82705 -2.81344,2.918497 -4.9931,4.519017 -8.37155,6.147197 -6.24185,3.00814 -12.18438,4.177313 -18.12163,3.565366 z m 7.9279,-1.194027 c 1.37845,-0.223547 3.54491,-0.754428 4.81436,-1.179732 2.30417,-0.771965 6.96654,-2.967702 7.13989,-3.362516 0.0504,-0.114699 0.7464,-0.696031 1.54677,-1.291844 6.15514,-4.582051 10.26844,-10.703414 12.07287,-17.966703 0.91583,-3.686489 1.13399,-9.067474 0.51503,-12.703727 -1.68616,-9.905776 -7.94031,-18.317954 -17.0155,-22.886787 -4.59071,-2.311154 -8.84618,-3.244463 -14.6224,-3.206983 -9.16108,0.05945 -18.36179,4.588511 -23.89386,11.761794 -4.9328,6.396241 -6.70613,10.949434 -6.98306,17.929709 -0.2407,6.06703 0.6233,10.396891 3.08764,15.473563 6.01731,12.395956 19.83734,19.622719 33.33826,17.433226 z m -10.14213,-2.131253 c -7.7158,-1.39386 -15.06296,-6.180233 -19.26318,-12.549185 -4.70501,-7.134381 -6.15428,-15.19778 -4.20598,-23.401137 2.68465,-11.303853 10.60314,-19.31559 21.90373,-22.161685 1.93961,-0.488497 3.06304,-0.585332 6.82004,-0.587854 4.11024,-0.0028 4.72574,0.06025 7.14125,0.731084 3.62385,1.006414 6.74316,2.433689 9.60971,4.397025 2.595,1.77735 6.22056,5.377846 7.76834,7.714632 2.23332,3.371789 4.13697,8.110988 4.72063,11.752162 0.40804,2.54553 0.42252,8.393999 0.0256,10.31875 -0.81156,3.934949 -2.67891,8.395612 -4.85989,11.609128 -1.76408,2.59925 -6.17333,6.997258 -7.16039,7.142128 -0.19026,0.02792 -0.66329,0.30041 -1.05118,0.605528 -2.20228,1.732311 -7.99167,3.972769 -11.8284,4.577519 -2.37971,0.375089 -7.1288,0.301982 -9.62023,-0.148095 z"
         id="path121"
         sodipodi:nodetypes="ssssssssscssssscssssssssssssscsssscssssss" />
      <path
         style="fill:#dd9918;stroke-width:0.264583"
         d="m 128.9655,98.834665 c -6.17013,-0.635947 -11.51938,-2.665603 -16.22944,-6.157899 -7.15598,-5.305835 -11.66365,-12.887534 -13.02252,-21.903292 -0.49033,-3.253219 -0.522468,-4.590288 -0.180683,-7.516964 0.449353,-3.847765 1.917943,-9.109934 2.842873,-10.186458 0.18754,-0.218281 0.53364,-0.863166 0.7691,-1.433078 1.41116,-3.415562 5.97791,-8.741801 9.8823,-11.525817 3.83304,-2.733144 9.03002,-5.006317 12.47027,-5.454531 2.10129,-0.273767 1.50928,0.274142 -0.86757,0.80294 -8.13045,1.808852 -15.22475,6.9789 -19.89515,14.498805 -0.78985,1.271752 -1.4361,2.477328 -1.4361,2.679057 0,0.201729 -0.30578,1.058203 -0.67951,1.903276 -1.35676,3.067874 -1.98742,6.055662 -2.15157,10.193145 -0.2407,6.06703 0.6233,10.396891 3.08764,15.473563 4.54394,9.36073 13.63236,15.983653 23.95282,17.454924 6.87818,0.980546 12.64234,-0.03697 19.39547,-3.423795 8.39165,-4.208574 14.60341,-12.570029 16.31515,-21.961316 0.55679,-3.05485 0.88693,-7.83009 0.54132,-7.83009 -0.15164,0 -0.47836,-1.306224 -0.72605,-2.902719 -1.72543,-11.121396 -9.23478,-20.421965 -19.77573,-24.492884 -1.31347,-0.507262 -3.1324,-1.093273 -4.04206,-1.302248 -2.30283,-0.529025 -7.33912,-0.887221 -9.8011,-0.697083 l -2.06175,0.159228 0.0774,-0.655897 c 0.0648,-0.549485 0.27055,-0.6919 1.268,-0.877811 3.03738,-0.566121 9.85147,0.311752 14.02292,1.806599 9.95083,3.565893 17.69189,11.741128 20.78558,21.951357 0.64458,2.127348 0.73398,2.903159 0.83843,7.276042 0.12242,5.125616 -0.0668,8.311136 -0.47866,8.056615 -0.1338,-0.08269 -0.24326,0.02196 -0.24326,0.232548 0,0.210589 -0.30233,1.426146 -0.67183,2.701237 -2.83641,9.787836 -11.15461,18.417367 -20.87979,21.661254 -3.97491,1.325851 -9.02131,1.892345 -13.10647,1.471292 z m -2.21423,-3.32528 c -7.7158,-1.39386 -15.06296,-6.180233 -19.26318,-12.549185 -4.70501,-7.134381 -6.15428,-15.19778 -4.20598,-23.401137 1.00704,-4.240197 2.10256,-6.638402 4.53545,-9.928594 3.18026,-4.3009 6.80747,-7.431731 10.98539,-9.482037 2.70391,-1.326939 6.72063,-2.691244 6.72063,-2.282706 0,0.08337 -0.44007,1.454718 -0.97794,3.047431 l -0.97793,2.895842 0.54107,0.727923 c 0.7691,1.034674 1.77406,1.052325 3.6267,0.0637 1.67697,-0.894881 2.96201,-0.972895 3.44029,-0.208858 0.21241,0.339309 -0.0248,1.835301 -0.9655,6.088559 -0.68591,3.101297 -1.2471,5.946277 -1.2471,6.322177 0,1.078787 0.84664,1.650638 2.3643,1.596922 1.66998,-0.05911 2.10935,0.464717 1.93261,2.304082 -0.11047,1.149686 -0.0501,1.334603 0.60398,1.849075 0.3997,0.314401 0.90799,0.57164 1.12954,0.57164 0.22155,0 1.78912,-1.369219 3.48347,-3.042708 2.37751,-2.348225 3.24154,-3.042709 3.78553,-3.042709 1.23936,0 1.35058,0.632594 0.96645,5.496928 l -0.34464,4.364196 0.60931,0.493398 c 0.86144,0.697545 1.55667,0.621477 3.95418,-0.432647 1.15841,-0.509323 2.28852,-0.926042 2.51136,-0.926042 0.87429,0 1.22891,1.074047 1.22891,3.722032 0,2.215377 0.0691,2.608537 0.53258,3.027934 1.08732,0.984009 1.81318,0.665966 5.64306,-2.472534 1.98296,-1.624984 3.66683,-2.954515 3.74195,-2.954515 0.30345,0 0.0952,2.648384 -0.37456,4.7625 -1.26364,5.687409 -3.66882,10.35518 -7.41543,14.391272 -2.04162,2.199362 -5.48271,4.910521 -7.75896,6.113118 -2.36731,1.250699 -6.46778,2.604696 -9.18531,3.033038 -2.3797,0.375089 -7.1288,0.301982 -9.62023,-0.148095 z M 152.09863,72.53867 c -0.43931,-0.320926 -0.52662,-0.770506 -0.60375,-3.108854 -0.13358,-4.050117 -0.71208,-4.400859 -4.50675,-2.732437 -2.22557,0.978522 -3.19349,0.976173 -3.57141,-0.0087 -0.0939,-0.244666 -0.0462,-1.765361 0.10602,-3.379327 0.47153,-5.000101 0.44155,-5.745879 -0.25363,-6.3088 -0.33343,-0.269985 -0.8499,-0.490888 -1.14771,-0.490888 -0.33561,0 -1.71276,1.15685 -3.62214,3.042708 -2.0297,2.0047 -3.27708,3.042708 -3.65644,3.042708 -0.88894,0 -1.43196,-1.047961 -1.22232,-2.358948 0.14999,-0.937971 0.082,-1.203706 -0.45454,-1.775901 -0.53283,-0.568274 -0.78654,-0.648091 -1.632,-0.513425 -1.08171,0.172299 -1.88572,-0.120077 -2.13799,-0.77747 -0.0872,-0.227348 0.43686,-3.116177 1.16466,-6.41962 1.3099,-5.945499 1.31829,-6.012991 0.82856,-6.671594 -0.73532,-0.988874 -1.51937,-0.958622 -3.7851,0.146048 -1.98021,0.965464 -2.06135,0.981821 -2.72223,0.548793 -0.89548,-0.586738 -0.86673,-1.066955 0.2677,-4.471451 0.66954,-2.009339 1.11742,-2.944036 1.52135,-3.174968 0.39513,-0.225897 2.00681,-0.326794 5.20267,-0.325707 4.25172,0.0015 4.84629,0.06175 7.27355,0.73774 3.62827,1.010469 6.74597,2.437675 9.60971,4.399084 2.595,1.77735 6.22056,5.377846 7.76834,7.714632 3.06088,4.621221 4.99529,10.48594 4.96717,15.059454 l -0.0106,1.719791 -2.90841,2.38125 c -5.59183,4.578289 -5.43297,4.486878 -6.47474,3.72586 z"
         id="path119"
         sodipodi:nodetypes="ssssssssssssssssssssssccsssssscsssssssssscsssssssssssscsssscsscsssscssscssssscscsssssscsssscscc" />
      <path
         style="fill:#e52a50;stroke-width:0.264583"
         d="m 128.9655,98.834665 c -6.17013,-0.635947 -11.51938,-2.665603 -16.22944,-6.157899 -7.15598,-5.305835 -11.66365,-12.887534 -13.02252,-21.903292 -0.49033,-3.253219 -0.522468,-4.590288 -0.180683,-7.516964 0.449353,-3.847765 1.917943,-9.109934 2.842873,-10.186458 0.18754,-0.218281 0.53364,-0.863166 0.7691,-1.433078 1.41116,-3.415562 5.97791,-8.741801 9.8823,-11.525817 3.83304,-2.733144 9.03002,-5.006317 12.47027,-5.454531 2.10129,-0.273767 1.50928,0.274142 -0.86757,0.80294 -8.13045,1.808852 -15.22475,6.9789 -19.89515,14.498805 -0.78985,1.271752 -1.4361,2.477328 -1.4361,2.679057 0,0.201729 -0.30578,1.058203 -0.67951,1.903276 -1.35676,3.067874 -1.98742,6.055662 -2.15157,10.193145 -0.2407,6.06703 0.6233,10.396891 3.08764,15.473563 6.01731,12.395945 19.83735,19.622716 33.33826,17.433226 9.13851,-1.482024 17.34035,-6.893613 22.15746,-14.619528 2.69513,-4.32258 4.14452,-8.871693 4.61123,-14.472933 0.36655,-4.39928 0.60116,-4.926727 0.70612,-1.5875 0.0975,3.100099 -0.15478,6.021856 -0.50136,5.807657 -0.1338,-0.08269 -0.24326,0.02196 -0.24326,0.232548 0,0.210589 -0.30233,1.426146 -0.67183,2.701237 -2.83641,9.787836 -11.15461,18.417367 -20.87979,21.661254 -3.97491,1.325851 -9.02131,1.892345 -13.10647,1.471292 z m -2.21423,-3.32528 c -7.7158,-1.39386 -15.06296,-6.180233 -19.26318,-12.549185 -4.70501,-7.134381 -6.15428,-15.19778 -4.20598,-23.401137 1.00704,-4.240197 2.10256,-6.638402 4.53545,-9.928594 3.18026,-4.3009 6.80747,-7.431731 10.98539,-9.482037 2.70391,-1.326939 6.72063,-2.691244 6.72063,-2.282706 0,0.08337 -0.44007,1.454718 -0.97794,3.047431 l -0.97793,2.895842 0.54107,0.727923 c 0.7691,1.034674 1.77406,1.052325 3.6267,0.0637 1.67697,-0.894881 2.96201,-0.972895 3.44029,-0.208858 0.21241,0.339309 -0.0248,1.835301 -0.9655,6.088559 -0.68591,3.101297 -1.2471,5.946277 -1.2471,6.322177 0,1.078787 0.84664,1.650638 2.3643,1.596922 1.66998,-0.05911 2.10935,0.464717 1.93261,2.304082 -0.11047,1.149686 -0.0501,1.334603 0.60398,1.849075 0.3997,0.314401 0.90799,0.57164 1.12954,0.57164 0.22155,0 1.78912,-1.369219 3.48347,-3.042708 2.37751,-2.348225 3.24154,-3.042709 3.78553,-3.042709 1.23936,0 1.35058,0.632594 0.96645,5.496928 l -0.34464,4.364196 0.60931,0.493398 c 0.86144,0.697545 1.55667,0.621477 3.95418,-0.432647 1.15841,-0.509323 2.28852,-0.926042 2.51136,-0.926042 0.87429,0 1.22891,1.074047 1.22891,3.722032 0,2.215377 0.0691,2.608537 0.53258,3.027934 1.08732,0.984009 1.81318,0.665966 5.64306,-2.472534 1.98296,-1.624984 3.66683,-2.954515 3.74195,-2.954515 0.30345,0 0.0952,2.648384 -0.37456,4.7625 -1.26364,5.687409 -3.66882,10.35518 -7.41543,14.391272 -2.04162,2.199362 -5.48271,4.910521 -7.75896,6.113118 -2.36731,1.250699 -6.46778,2.604696 -9.18531,3.033038 -2.3797,0.375089 -7.1288,0.301982 -9.62023,-0.148095 z"
         id="path117"
         sodipodi:nodetypes="ssssssssssssssssscsscssssssssscsssssssssssscsssscsscssss" />
      <path
         style="fill:#a3174f;stroke-width:0.264583"
         d="m 128.9655,98.834665 c -6.17013,-0.635947 -11.51938,-2.665603 -16.22944,-6.157899 -7.15598,-5.305835 -11.66365,-12.887534 -13.02252,-21.903292 -0.49033,-3.253219 -0.522468,-4.590288 -0.180683,-7.516964 0.340214,-2.913215 0.861913,-5.196289 1.783543,-7.805208 0.62343,-1.764774 1.57007,-3.146137 1.91777,-2.798443 0.0689,0.06886 -0.23609,0.994574 -0.67768,2.057137 -1.39433,3.355122 -1.95422,6.061418 -2.1033,10.166619 -0.21611,5.950638 0.66682,10.314302 3.10195,15.330797 3.03337,6.248884 7.87893,11.15805 14.1264,14.311825 9.27178,4.680476 19.37266,4.664739 28.74992,-0.0448 2.27691,-1.143534 2.41065,-1.17907 2.32938,-0.618921 -0.0647,0.445725 -0.60928,0.854742 -2.17884,1.636352 -5.48016,2.729016 -11.84805,3.937347 -17.6165,3.342799 z m -2.21423,-3.32528 c -9.63049,-1.739747 -17.79423,-8.178726 -21.81957,-17.209712 -3.29259,-7.38706 -3.30592,-15.901897 -0.0372,-23.753771 1.4986,-3.599795 1.83177,-3.892806 7.49354,-6.590303 4.27045,-2.034619 5.0891,-2.341287 5.68792,-2.130694 1.22697,0.431502 1.32804,1.102798 0.90404,6.004767 -0.21161,2.446488 -0.31243,4.736275 -0.22405,5.088416 0.23308,0.928654 1.35395,1.408028 2.93155,1.25376 1.12618,-0.110125 1.40208,-0.04204 1.85208,0.457078 0.49603,0.55016 0.52878,0.959997 0.52878,6.618058 0,6.01862 0.001,6.03305 0.64143,6.716906 0.35279,0.37693 0.91697,0.685329 1.25374,0.685329 0.33677,0 2.82745,-0.714375 5.53486,-1.5875 2.70741,-0.873125 5.25016,-1.5875 5.65057,-1.5875 1.28987,0 1.6997,0.778674 1.49629,2.84295 -0.15704,1.593744 -0.11504,1.864913 0.36935,2.384843 0.90975,0.976503 1.66635,0.995685 3.59909,0.09125 2.05657,-0.962388 2.81809,-1.02125 3.56386,-0.275477 0.516,0.515999 0.53554,0.731666 0.35957,3.96875 -0.18497,3.402648 -0.18262,3.4231 0.39353,3.4231 0.94061,0 2.04277,0.711999 2.38642,1.541632 0.50482,1.21876 -0.0608,6.561896 -0.77508,7.322259 -1.49186,1.58801 -8.11042,4.243998 -12.17051,4.883954 -2.3797,0.375089 -7.1288,0.301982 -9.62023,-0.148095 z"
         id="path115"
         sodipodi:nodetypes="sssssccsssscssscssssssssscsssssssssscscc" />
      <path
         style="fill:#590c5f;stroke-width:0.264583"
         d="m 128.9655,98.834665 c -6.17013,-0.635947 -11.51938,-2.665603 -16.22944,-6.157899 -7.1879,-5.329505 -11.644,-12.848934 -13.044509,-22.011922 -0.53335,-3.489505 -0.576174,-5.50821 -0.128298,-6.047867 0.626727,-0.755155 0.824917,-0.196647 0.824917,2.324658 0,11.441199 6.79573,22.278305 17.29337,27.577602 9.16214,4.625128 19.39856,4.656227 28.4872,0.08655 2.06909,-1.040321 2.14602,-1.058043 2.06298,-0.4752 -0.0647,0.45411 -0.54914,0.831755 -1.93834,1.511043 -5.31938,2.601053 -11.68704,3.77443 -17.32788,3.193035 z m -2.21423,-3.32528 c -5.9053,-1.066792 -11.68052,-4.14655 -16.05486,-8.561599 -3.21945,-3.249412 -6.20992,-8.587682 -7.38166,-13.176935 -0.82806,-3.24317 -1.15283,-8.535591 -0.66484,-10.834034 0.0818,-0.385376 1.24035,-1.353621 3.40324,-2.844271 3.64674,-2.513299 4.45601,-2.746386 5.59184,-1.610562 0.80861,0.808611 0.83171,1.878781 0.14023,6.494318 -0.54828,3.659616 -0.46694,4.153908 0.8431,5.12346 0.65924,0.487908 0.84737,0.509659 1.92202,0.222235 1.87436,-0.501314 2.66037,-0.410634 3.28112,0.378528 0.66697,0.847916 0.68948,1.91416 0.15191,7.198252 -0.43358,4.261884 -0.26594,5.092326 1.13674,5.631132 1.05962,0.407027 1.88413,0.05392 5.85065,-2.505641 4.01395,-2.590168 5.03549,-2.858106 6.25339,-1.6402 0.5891,0.589092 0.64943,0.861385 0.64943,2.930768 0,2.1687 0.0382,2.319523 0.7734,3.054734 0.4939,0.4939 1.0466,0.773398 1.52937,0.773398 0.41579,0 3.13001,-0.833437 6.03161,-1.852083 5.9967,-2.105224 7.30088,-2.290726 8.33867,-1.186056 0.6237,0.663906 0.62482,0.676947 0.34925,4.093626 -0.15204,1.88518 -0.40764,3.585683 -0.56799,3.778898 -0.16036,0.193217 -1.33857,0.900583 -2.61824,1.571929 -2.51426,1.319027 -6.58655,2.674488 -9.33815,3.108198 -2.3797,0.375089 -7.1288,0.301982 -9.62023,-0.148095 z"
         id="path113"
         sodipodi:nodetypes="ssssssssssssscssssssssssssssssssss" />
    </g>
  </g>
</svg>
